<?xml version="1.0" standalone="no"?>
<!DOCTYPE svg PUBLIC "-//W3C//DTD SVG 20010904//EN"
 "http://www.w3.org/TR/2001/REC-SVG-20010904/DTD/svg10.dtd">
<svg version="1.0" xmlns="http://www.w3.org/2000/svg"
 width="300.000000pt" height="169.000000pt" viewBox="0 0 300.000000 169.000000"
 preserveAspectRatio="xMidYMid meet">
<metadata>
Created by potrace 1.10, written by Peter Selinger 2001-2011
</metadata>
<g transform="translate(0.000000,169.000000) scale(0.100000,-0.100000)"
fill="#000000" stroke="none">
<path d="M1010 1575 c0 -77 -49 -135 -115 -135 l-25 0 0 -614 0 -613 39 -7
c58 -9 101 -62 101 -124 l0 -47 77 1 c76 1 78 2 81 27 10 85 148 87 170 3 7
-27 11 -29 62 -29 52 0 55 1 62 31 5 17 18 38 30 47 50 34 133 4 140 -51 3
-25 5 -26 81 -27 l77 -2 0 51 c0 36 6 59 20 77 20 25 76 51 99 45 8 -2 12 48
14 175 1 97 0 177 -2 177 -2 0 -17 -11 -33 -25 -99 -84 -234 -102 -355 -49
-21 9 -46 18 -55 19 -15 1 -58 40 -58 52 0 2 21 -7 48 -21 69 -37 127 -47 202
-35 81 13 157 50 209 103 l40 41 3 397 3 396 -40 5 c-60 8 -95 52 -95 118 l0
50 -77 -3 -77 -3 -8 -32 c-8 -33 -49 -63 -83 -63 -34 0 -75 30 -83 63 -8 31
-10 32 -65 35 -54 3 -57 2 -57 -21 0 -29 -32 -65 -66 -73 -40 -10 -90 18 -105
60 l-13 36 -73 0 -73 0 0 -35z m139 -46 c52 -71 137 -74 199 -8 44 46 64 49
91 10 11 -16 37 -36 57 -46 52 -24 96 -13 144 36 32 33 45 40 71 37 28 -3 34
-8 42 -37 11 -46 40 -81 85 -107 l37 -21 2 -149 3 -149 -33 59 c-64 118 -163
206 -284 253 -90 34 -228 36 -317 4 -125 -44 -231 -133 -281 -235 -40 -81 -43
-125 -12 -154 23 -22 27 -23 49 -8 13 8 40 38 61 65 42 55 122 113 189 137 24
9 77 17 118 19 l75 4 -72 -8 c-39 -5 -97 -20 -128 -35 -83 -38 -174 -130 -220
-223 -36 -72 -38 -75 -50 -53 -10 19 -13 20 -18 5 -14 -36 -7 -193 13 -269 24
-95 94 -231 160 -314 28 -34 46 -62 39 -62 -6 0 -44 33 -83 72 -77 79 -124
161 -151 263 -17 66 -20 232 -5 284 7 26 6 37 -5 48 -12 12 -15 53 -15 221 0
114 4 212 8 218 4 6 21 18 39 27 40 21 70 59 85 108 10 36 14 39 48 39 29 0
41 -6 59 -31z m392 -160 c166 -48 293 -204 306 -373 14 -184 -95 -336 -240
-336 -59 0 -103 18 -141 59 -24 25 -30 41 -33 88 -5 74 5 91 39 69 47 -31 98
8 98 74 0 99 -120 162 -241 127 -161 -47 -264 -192 -276 -390 -8 -123 -27 -97
-31 43 -4 91 -1 119 17 173 81 241 346 358 527 234 123 -85 146 -261 47 -353
-24 -22 -24 -24 -6 -24 21 0 65 30 95 65 29 33 51 122 44 174 -25 186 -218
317 -416 283 -128 -22 -265 -114 -327 -220 -31 -52 -46 -44 -32 18 41 183 261
333 459 313 25 -2 75 -13 111 -24z m-82 -338 c10 -7 2 -14 -30 -29 -57 -27
-92 -58 -114 -102 -100 -196 -28 -466 156 -589 80 -53 167 -75 270 -68 44 3
83 8 86 10 15 15 -15 27 -68 27 -64 0 -73 14 -15 23 20 3 58 17 86 31 l51 26
-3 -53 -3 -52 -60 -25 c-52 -22 -75 -25 -175 -25 -112 0 -117 1 -178 34 -80
44 -145 116 -191 211 -32 68 -36 85 -39 176 -5 115 10 183 59 273 16 30 29 59
29 64 0 5 -21 -10 -47 -33 -58 -50 -87 -115 -104 -226 -10 -70 -9 -91 6 -160
31 -143 132 -292 228 -338 20 -9 37 -21 37 -27 0 -14 -47 -1 -116 32 -124 59
-203 185 -212 337 -6 107 12 186 68 295 39 77 39 96 -1 56 -32 -32 -32 -17 0
28 32 44 71 75 123 98 37 16 135 20 157 6z m55 -57 c27 -10 18 -24 -15 -24
-39 0 -62 -13 -84 -47 -61 -92 -20 -218 88 -275 31 -17 59 -22 107 -22 81 1
143 29 200 90 22 24 43 44 45 44 3 0 5 -20 5 -44 0 -39 -4 -48 -39 -75 -126
-100 -299 -100 -400 0 -43 42 -81 123 -81 170 0 112 96 213 174 183z m362
-212 c-4 -3 -11 -1 -17 5 -7 7 -6 19 3 39 l13 29 3 -34 c2 -18 1 -36 -2 -39z
m-458 -265 c58 -61 142 -97 228 -97 70 0 148 19 192 48 23 15 23 15 20 -23 -3
-37 -6 -40 -58 -61 -43 -18 -75 -23 -146 -24 -82 0 -97 3 -152 30 -33 17 -75
47 -93 67 -37 43 -86 142 -94 193 -6 31 -2 27 29 -30 20 -35 53 -82 74 -103z
m-430 -89 c39 -60 128 -138 156 -138 14 0 49 -20 84 -47 l60 -48 -39 -3 c-31
-3 -50 -13 -86 -48 -35 -33 -54 -44 -79 -44 -27 0 -32 4 -38 31 -10 50 -45 98
-86 119 -21 10 -40 26 -44 35 -8 23 -8 230 1 239 4 3 16 -8 26 -26 11 -18 31
-50 45 -70z m512 -234 c0 -10 -92 -94 -104 -94 -7 0 -27 18 -44 39 l-32 40 53
-6 c43 -4 56 -2 75 15 19 17 52 21 52 6z m254 -41 c-9 -51 -11 -53 -48 -53
-24 0 -38 7 -55 31 -13 17 -21 32 -19 34 3 4 92 22 116 24 10 1 11 -9 6 -36z"/>
</g>
</svg>
